# xmcd CD database file
#
# Track frame offsets:
#	150
#	19211
#	36574
#	51222
#	69193
#	84917
#	104123
#	119768
#	139809
#	160465
#	180053
#	196648
#	214215
#	232224
#	250336
#	269363
#	287280
#	305709
#	321958
#	338621
#
# Disc length: 4767 seconds
#
# Revision: 0
# Processed by: cddbd v1.5.2PL0 Copyright (c) Steve Scherf et al.
# Submitted via: CDex 1.70beta2
#
DISCID=2a129d14
DTITLE=Les années 90 - Les années 90
DYEAR=1990
DGENRE=New Age
TTITLE0=A toutes les filles
TTITLE1=Groove is in the heart
TTITLE2=Please don't go
TTITLE3=The music got me
TTITLE4=No limit
TTITLE5=Informer
TTITLE6=Sing hallelujah recall 2004
TTITLE7=What is love
TTITLE8=It's alright
TTITLE9=The rhythm of the night
TTITLE10=Saturday night
TTITLE11=Dieu m'a donné la foi
TTITLE12=Gangsta's paradise
TTITLE13=Children
TTITLE14=Freed from desire
TTITLE15=The boy is mine
TTITLE16=tu tatuta tuta ta
TTITLE17=Chanter pour ceux qui sont loin de chez eux
TTITLE18=Strong enough
TTITLE19=Show me love
EXTD=YEAR: 1990
EXTT0=
EXTT1=
EXTT2=
EXTT3=
EXTT4=
EXTT5=
EXTT6=
EXTT7=
EXTT8=
EXTT9=
EXTT10=
EXTT11=
EXTT12=
EXTT13=
EXTT14=
EXTT15=
EXTT16=
EXTT17=
EXTT18=
EXTT19=
PLAYORDER=
